<svg xmlns="http://www.w3.org/2000/svg" viewBox="0 0 512 512" width="512" height="512">
  <defs>
    <linearGradient id="blueEdge" x1="0.4" y1="0" x2="1" y2="0.9">
      <stop offset="0%" stop-color="#122c52"/>
      <stop offset="50%" stop-color="#1b6299"/>
      <stop offset="100%" stop-color="#2a98d0"/>
    </linearGradient>
  </defs>

  <!-- T: vertical stem -->
  <path d="M 52,60 L 168,60 L 168,124 L 128,124 L 128,448 L 88,448 L 88,124 L 52,124 Z" fill="#0b1d3a"/>
  
  <!-- T: extended crossbar + arrow -->
  <path d="M 168,60 L 270,60 L 270,68 L 290,92 L 270,116 L 270,124 L 168,124 Z" fill="#0b1d3a"/>
  
  <!-- Arrow head pointing into Q -->
  <polygon points="260,60 320,92 260,124" fill="#0b1d3a"/>

  <!-- Q: main body (large circle portion) -->
  <path d="
    M 330,72 
    C 430,72 488,160 488,272
    C 488,370 445,440 380,460
    L 430,500
    L 370,500
    L 330,462
    C 240,458 190,380 190,272
    C 190,148 245,72 330,72
    Z
  " fill="#0b1d3a"/>
  
  <!-- Q: right-side blue gradient highlight -->
  <path d="
    M 400,88
    C 460,125 500,190 500,275
    C 500,375 460,440 400,468
    L 440,505
    L 425,505
    L 385,465
    C 450,435 488,370 488,272
    C 488,180 455,120 400,88
    Z
  " fill="url(#blueEdge)" opacity="0.9"/>

  <!-- Q: inner white oval cutout -->
  <ellipse cx="338" cy="278" rx="100" ry="108" fill="white"/>

  <!-- Eye outline shape (almond) -->
  <path d="
    M 242,278
    Q 338,180 434,278
    Q 338,376 242,278
    Z
  " fill="#0b1d3a"/>

  <!-- Eye sclera (inner white of eye) -->
  <path d="
    M 262,278
    Q 338,204 414,278
    Q 338,352 262,278
    Z
  " fill="white"/>

  <!-- Iris -->
  <circle cx="344" cy="278" r="42" fill="#0b1d3a"/>

  <!-- Pupil highlight (main) -->
  <circle cx="332" cy="264" r="15" fill="white"/>

  <!-- Pupil highlight (secondary) -->
  <circle cx="356" cy="290" r="7" fill="white" opacity="0.4"/>

  <!-- Q tail (bottom-right diagonal) -->
  <path d="
    M 350,400
    L 440,480
    L 440,500
    L 375,500
    L 310,440
    L 300,410
    Z
  " fill="#0b1d3a"/>
</svg>
